<svg xmlns="http://www.w3.org/2000/svg" viewBox="0 0 195.512 108.328" fill="none" stroke="none" stroke-linecap="square" stroke-miterlimit="10"><clipPath id="A"><path d="M0 0h195.512v108.328H0V0z"/></clipPath><g clip-path="url(#A)"><g fill="#000" fill-rule="evenodd"><path fill-opacity="0" d="M0 0h195.512v108.328H0z"/><path fill-opacity="0" d="M0 0h195.528v108.315H0z"/></g><path fill="#fff" d="M71.172 47.315q1.016-.422 3.03.61 2.016 1.03 3.438 2.188 1.422 1.156 2.266 2.39.844 1.234 1.313 2.375.47 1.14.594 2.14.125.984.125 1.656 0 2.484-.953 4.453-.937 1.97-2.516 3.438-1.562 1.47-3.578 2.453-2 .97-4.14 1.578-2.125.61-4.344.875-2.22.28-4.203.28-3.22 0-6.656-.656-3.422-.64-6.922-2.11-1.562-.64-1.562-2.312 0-1.14.78-1.828.797-.687 1.734-.687.453 0 .953.188 2.813 1.172 5.75 1.78 2.938.594 5.89.594 4.047 0 6.875-.75 2.844-.766 4.578-1.937 1.734-1.188 2.5-2.563.78-1.39.78-2.766 0-1.516-.875-2.86-.86-1.344-2.594-2.5-1.734-1.156-4.28-2.016-2.53-.86-5.484-1.25-2.016.344-4.11.516-2.094.156-3.86.156h-.72q-.328 0-.266-1.094-1.234 5.813-4.453 9.906-3.22 4.078-6.89 6.766-3.672 2.688-7.578 4-3.906 1.297-7.53 1.297-3.75 0-6.937-1.062-3.172-1.062-5.5-3.047-2.328-1.984-3.64-4.828-1.312-2.844-1.312-6.328 0-3.547 1.36-7.28 1.375-3.75 4.047-7.547 2.516-3.547 5.578-6.375 3.063-2.828 6.422-4.953 3.36-2.125 6.922-3.625 3.563-1.5 7.063-2.47 3.516-.97 6.875-1.39 3.36-.437 6.313-.437 2.39 0 4.563.156 2.188.156 3.47.375.72-.797 1.47-1.39.75-.61.953-.75.734-.36 1.328-.36.875 0 1.656.578.797.578.797 1.72 0 1.188-.64 1.813-.64.61-1.172.078 5.234.5 8.594 3.64 3.375 3.14 3.375 7.875 0 2.547-.844 4.594-.844 2.047-2.297 3.578-1.453 1.53-3.328 2.625-1.86 1.094-2.203.5zm-7.547-2.297q1.125-.203 2.5-.578 1.39-.39 2.688-.937 1.313-.547 2.422-1.25 1.125-.72 1.906-1.64.78-.922 1.234-2.047.47-1.125.47-2.578 0-2.86-2.53-4.844-2.53-1.984-6.86-2.86-1 1.234-2.344 3.516-1.328 2.266-2.453 4.734-1.125 2.453-2.03 4.984-.906 2.516-2.172 4.03 0-.86.547-.86.547 0 .922 0 1.25 0 2.72.078 1.484.078 2.984.25zm-3.078-17.89q0 .375-1.64.28-1.64-.094-3.453-.094-2.656 0-5.672.406-3 .39-6.172 1.25-3.156.844-6.375 2.203-3.203 1.344-6.22 3.234-3 1.89-5.72 4.39-2.72 2.5-4.953 5.64-2.234 3.172-3.36 6.203-1.11 3.016-1.11 5.688 0 2.438.86 4.328.86 1.875 2.453 3.188 1.594 1.297 3.906 2.03 2.313.72 5.172.72 2.844 0 5.953-1.03 3.125-1.047 6.125-3.234 3-2.187 5.734-5.562 2.734-3.39 5.438-7.156-.344.953-1.437.36Q49 49.362 49 47.862q0-1.61 1.188-2.14 1.203-.547 2.11-.687.578-1.78 1.47-4.36.89-2.594 1.97-5.14 1.078-2.562 2.39-5.047 1.328-2.484 2.422-3.36zm50.047 33.828q-.14.28-.547 1.094-.39.813-1.03 1.906-.64 1.078-1.516 2.28-.86 1.188-1.97 2.234-1.11 1.047-2.5 1.78-1.375.72-2.984.72-2.344 0-3.89-1.453-1.547-1.453-1.187-1.922.172.688-1.594 1.938-1.75 1.25-3.64 1.25-1.437 0-2.64-.53-1.203-.547-2.047-1.516-.828-.984-1.266-2.234-.437-1.266-.437-2.703 0-2.72.938-4.812.938-2.11 2.406-3.547 1.47-1.437 3.25-2.156 1.78-.72 3.484-.72 1.188 0 2.156.328.97.313 1.656.688.688.36 1.078.688.39.328.5.438.688.828.688 1.75 0 1-.734 1.766-.72.75-1.75.75-1.047 0-1.78-.734-.016 0-.156-.11-.125-.11-.375-.234-.25-.125-.625-.22-.36-.11-.844-.11-.72 0-1.562.344-.844.328-1.562 1.063-.72.734-1.234 1.89-.5 1.156-.5 2.78 0 .453.078.89.094.422.25.688.172.25.406.39.234.14.656.14.25 0 .72-.234.47-.25 1-.86.53-.61.984-1.625.47-1.016.672-2.453.125-.937.844-1.547.72-.625 1.688-.625 1 0 1.688.72.703.72.766 1.656.03.578.11 1.578.094 1 .36 1.86.266.86.64 1.313.375.438.906.438.406 0 .906-.28.516-.28 1.11-.86.61-.578 1.188-1.36.594-.797 1.094-1.61.516-.828.906-1.61.39-.78.656-1.36.313-.687.938-1.078.625-.406 1.36-.406 1.156 0 1.828.813.688.813.688 1.734 0 .484-.22 1zm.547-4q.547.422.344 1.203-.187.78-.375 1.36-.172.578-.36 1.078-.187.5-1.156-.062.36 1.906-1.297 1.906-.937 0-1.734-.687-.78-.687-.78-1.797 0-.594.14-.797.14-.22.22-.406.094-.187.25-.766.172-.594 1.22-1.22-.03.89-.72.86-.687-.047-1.453-.328-.75-.297-1.312-1.03-.562-.734-.562-1.906 0-.75.36-1.812.344-1.078.922-2.078.578-1.016 1.453-1.906.875-.906 2.063-.906 1.328 0 2.063.875.75.86 1.047 1.813.313.938.438 1.89.125.953-.672 1.125-.016-.797.5-.812.516-.016 1-.016 2.266 0 3.625 1.14 1.36 1.125 1.36 3.53 0 .797-.11 1.625-.094.828-.22 1.656-.125.828-.22 1.594-.078.766-.078 1.47 0 .86.203 1.344.203.47.453.72.266.234.547.328.297.094.53.094.906 0 1.844-.687.953-.703 1.86-1.828.922-1.125 1.672-2.437.766-1.328 1.297-2.344.344-.64.938-.97.61-.328 1.266-.328 1.172 0 1.844.78.672.766.672 1.703 0 .625-.28 1.188-.734 1.313-1.734 2.984-.984 1.672-2.312 3.203-1.312 1.516-3.078 2.64-1.75 1.125-3.953 1.125-1.39 0-2.656-.53-1.25-.53-2.172-1.53-.922-1-1.453-2.406-.516-1.406-.516-3.11 0-1.687.313-3.234.313-1.547.313-2.828 0-.094.094.03.11.11-.203.11-.437 0-.937 0-.5 0-.5-.61zm-2.937-3.22q-1.11.03-1.125-.28-.016-.312-.047-.562-.03-.266.484-.594.53-.344.53.86 0-1.156.39-.687.406.453.28.72-.125.266-.234.578-.094.313-1.187 0l.906-.03zM152 60.956q-.14.28-.547 1.094-.39.813-1.03 1.906-.64 1.078-1.516 2.28-.86 1.188-1.97 2.234-1.11 1.047-2.5 1.78-1.375.72-2.984.72-2.344 0-3.89-1.453-1.547-1.453-1.187-1.922.172.688-1.594 1.938-1.75 1.25-3.64 1.25-1.437 0-2.64-.53-1.203-.547-2.047-1.516-.828-.984-1.266-2.234-.437-1.266-.437-2.703 0-2.72.938-4.812.938-2.11 2.406-3.547 1.47-1.437 3.25-2.156 1.78-.72 3.484-.72 1.188 0 2.156.328.97.313 1.656.688.688.36 1.078.688.39.328.5.438.688.828.688 1.75 0 1-.734 1.766-.72.75-1.75.75-1.047 0-1.78-.734-.016 0-.156-.11-.125-.11-.375-.234-.25-.125-.625-.22-.36-.11-.844-.11-.72 0-1.562.344-.844.328-1.562 1.063-.72.734-1.234 1.89-.5 1.156-.5 2.78 0 .453.078.89.094.422.25.688.172.25.406.39.234.14.656.14.25 0 .72-.234.47-.25 1-.86.53-.61.984-1.625.47-1.016.672-2.453.125-.937.844-1.547.72-.625 1.688-.625 1 0 1.688.72.703.72.766 1.656.03.578.11 1.578.094 1 .36 1.86.266.86.64 1.313.375.438.906.438.406 0 .906-.28.516-.28 1.11-.86.61-.578 1.188-1.36.594-.797 1.094-1.61.516-.828.906-1.61.39-.78.656-1.36.313-.687.938-1.078.625-.406 1.36-.406 1.156 0 1.828.813.688.813.688 1.734 0 .484-.22 1zm3.344-16.375q0 1.734-1.22 2.953-1.22 1.22-2.953 1.22-1.734 0-2.953-1.22-1.22-1.22-1.22-2.953 0-.86.313-1.61.328-.766.906-1.344.578-.578 1.328-.89.766-.328 1.625-.328.86 0 1.61.328.766.313 1.344.89.578.578.89 1.344.328.75.328 1.61zm-3.656 23.922q-.5-.437.703-1.812 1.203-1.375 2.297-2.734 1.11-1.36 1.984-2.64.89-1.28 1.375-2.375.61-1.5 2.28-1.5 1.11 0 1.813.766.703.766.703 1.72 0 .516-.203 1-.78 1.75-2.094 3.578-1.297 1.828-2.78 3.594-1.47 1.766-3 3.406-1.516 1.656-2.422 2.672.03 1.984.078 4.39.047 2.406.047 4.578 0 8.86-1.906 13.547-1.906 4.688-6.14 4.688-1.484 0-2.734-.656-1.25-.64-2.094-1.797-.86-1.156-1.297-2.734-.453-1.578-.453-3.516 0-2.078.547-4.516.547-2.437 1.734-5.11 1.188-2.672 3.063-5.5 1.875-2.812 4.156-5.328 0-2.172.03-4.86.03-2.687.11-5.156.078-2.47.22-4.64.14-2.172.344-3.86.125-.984.828-1.594.72-.61 1.672-.61 1.016 0 1.75.734.734.734.734 1.78 0 .25-.11 1.313-.11 1.047-.234 3.03-.125 1.97-.234 4.906-.11 2.938-.766 5.234zm-.78-23.922q.234 0 .25-.03.016-.047.016.266 0-.266-.016-.25-.016.016.25.016-.312 0-.28-.016.047-.016.047-.25 0 .266 0 .266 0 0-.266 0zm-3.437 38.375q0-1.578-.03-3.172-.03-1.578.61-1.594-.187 1.22-1.5 3.406-1.312 2.203-2.14 4.188-.828 2-1.187 3.75-.375 1.75-.375 3.14 0 .78.11 1.53.11.75.328 1.25.22.516.484.72.25.203.656.203.125 0 .344-.078.203-.062.5-.39.297-.312.688-1.125.39-.797.734-2.328.36-1.516.563-3.86.22-2.328.22-5.64zm37.156-22q-.14.28-.547 1.094-.39.813-1.03 1.906-.64 1.078-1.516 2.28-.86 1.188-1.97 2.234-1.11 1.047-2.5 1.78-1.375.72-2.984.72-2.344 0-3.89-1.453-1.547-1.453-1.187-1.922.172.688-1.594 1.938-1.75 1.25-3.64 1.25-1.437 0-2.64-.53-1.203-.547-2.047-1.516-.828-.984-1.266-2.234-.437-1.266-.437-2.703 0-2.72.938-4.812.938-2.11 2.406-3.547 1.47-1.437 3.25-2.156 1.78-.72 3.484-.72 1.188 0 2.156.328.97.313 1.656.688.688.36 1.078.688.39.328.5.438.688.828.688 1.75 0 1-.734 1.766-.72.75-1.75.75-1.047 0-1.78-.734-.016 0-.156-.11-.125-.11-.375-.234-.25-.125-.625-.22-.36-.11-.844-.11-.72 0-1.562.344-.844.328-1.562 1.063-.72.734-1.234 1.89-.5 1.156-.5 2.78 0 .453.078.89.094.422.25.688.172.25.406.39.234.14.656.14.25 0 .72-.234.47-.25 1-.86.53-.61.984-1.625.47-1.016.672-2.453.125-.937.844-1.547.72-.625 1.688-.625 1 0 1.688.72.703.72.766 1.656.03.578.11 1.578.094 1 .36 1.86.266.86.64 1.313.375.438.906.438.406 0 .906-.28.516-.28 1.11-.86.61-.578 1.188-1.36.594-.797 1.094-1.61.516-.828.906-1.61.39-.78.656-1.36.313-.687.938-1.078.625-.406 1.36-.406 1.156 0 1.828.813.688.813.688 1.734 0 .484-.22 1z"/></g></svg>